<svg xmlns="http://www.w3.org/2000/svg" viewBox="0 0 650 120" fill="none" width="100%" height="100%">
  <g transform="translate(0, 5) scale(0.38)" fill="currentColor">
    <!-- Origami Isotype -->
    <polygon points="40,260 140,260 250,150 210,150" opacity="0.95"/>
    <polygon points="210,150 250,150 430,30 330,170" opacity="0.8"/>
    <polygon points="430,30 470,120 440,150 380,130" opacity="0.9"/>
    <polygon points="140,260 250,150 330,170 270,260" opacity="0.88"/>
    <polygon points="330,170 430,30 410,210 330,170" opacity="0.75"/>
    <polygon points="270,260 330,170 410,210 370,260" opacity="0.65"/>
    <polygon points="430,30 470,120 440,190 395,175" opacity="0.95"/>
    <polygon points="470,120 480,140 450,220 405,220 440,190" opacity="0.7"/>
    <polygon points="450,220 430,260 395,220 405,220" opacity="1"/>
    <path d="M425,140 C440,110 455,90 460,85 C450,110 440,135 430,155 Z" fill="#DFB6B2"/>
  </g>
  <!-- Wordmark -->
  <text x="210" y="65" font-family="'Montserrat', 'Helvetica Neue', sans-serif" font-weight="900" font-size="44" letter-spacing="4" fill="currentColor">BUFFALO</text>
  <text x="212" y="94" font-family="'Montserrat', 'Helvetica Neue', sans-serif" font-weight="400" font-size="13" letter-spacing="7" fill="currentColor" opacity="0.85">MANUFACTURA ARQUITECTÓNICA</text>
</svg>
